<svg xmlns="http://www.w3.org/2000/svg" width="7.514" height="7.165" viewBox="0 0 7.514 7.165"><g transform="translate(0 -11.877)"><path d="M7.336,14.465,4.9,14.239l-.967-2.245a.2.2,0,0,0-.358,0l-.967,2.245-2.434.226a.2.2,0,0,0-.111.341L1.9,16.419,1.365,18.8a.2.2,0,0,0,.29.211l2.1-1.248,2.1,1.248a.2.2,0,0,0,.29-.211l-.537-2.384,1.836-1.613A.2.2,0,0,0,7.336,14.465Z" transform="translate(0)" fill="#ffdc64"/><path d="M3.936,11.995a.2.2,0,0,0-.358,0l-.967,2.245-2.434.226a.2.2,0,0,0-.111.341L1.9,16.419,1.365,18.8a.2.2,0,0,0,.29.211l.469-.279A8.6,8.6,0,0,1,4.414,13.1Z" transform="translate(0)" fill="#ffc850"/></g></svg>